<svg xmlns="http://www.w3.org/2000/svg" xmlns:xlink="http://www.w3.org/1999/xlink" width="100%" height="100%" version="1.1" viewBox="0 0 29 22" xml:space="preserve" style="fill-rule:evenodd;clip-rule:evenodd;stroke-linejoin:round;stroke-miterlimit:2"><g><g transform="matrix(1,0,0,1,-1234,-1651) matrix(1,0,0,1,1.13687e-13,-582.164)"><g id="binding"><g><path d="M947.387,2245.94L947.387,2245.25L957.568,2239.05L958.478,2240.53L950.068,2245.49L958.502,2250.34L957.592,2251.78L947.387,2245.94Z" transform="matrix(1.20483,0,0,1.78178,-79.9912,-1767.49) matrix(0.757818,0,0,0.835365,373.052,375.684)" style="fill:#868687;fill-rule:nonzero"/></g><g><path d="M962.302,2242.23L973.411,2242.23L973.399,2243.55L962.29,2243.55L962.302,2242.23ZM962.302,2246.77L973.411,2246.77L973.411,2248.18L962.302,2248.18L962.302,2246.77Z" transform="matrix(1.20483,0,0,1.78178,-79.9912,-1767.49) matrix(1.45321,0,0,0.835365,-303.989,375.924)" style="fill:#868687;fill-rule:nonzero"/></g><g><path d="M978.122,2251.78L977.212,2250.34L985.645,2245.49L977.236,2240.53L978.146,2239.05L988.327,2245.25L988.327,2245.94L978.122,2251.78Z" transform="matrix(1.20483,0,0,1.78178,-79.9912,-1767.49) matrix(0.757818,0,0,0.835365,365.052,375.684)" style="fill:#868687;fill-rule:nonzero"/></g></g></g></g></svg>